<svg data-v-d3f97b9e="" xmlns="http://www.w3.org/2000/svg" viewBox="0 0 788.946049953325 207"><!----><!----><!----><g data-v-d3f97b9e="" id="86f98ab4-ec00-422e-b518-42c44186a163" fill="black" transform="matrix(4.683840595986125,0,0,4.683840595986125,-5.8079627536491785,100.53737866663599)"><path d="M1.24 12.61L1.24 2.95L2.98 2.95L2.98 12.61L1.24 12.61ZM5.47 12.61L5.47 2.95L7.21 2.95L7.21 12.61L5.47 12.61ZM11.61 12.61L11.61 4.50L8.59 4.50L8.59 2.95L16.37 2.95L16.37 4.50L13.35 4.50L13.35 12.61L11.61 12.61ZM17.76 12.61L17.76 2.95L19.50 2.95L19.50 7.98L24.20 2.95L26.52 2.95L22.66 6.90L26.60 12.61L24.44 12.61L21.46 8.07L19.50 10.10L19.50 12.61L17.76 12.61ZM30.15 12.61L34.02 2.95L35.32 2.95L39.17 12.61L37.30 12.61L36.55 10.51L32.80 10.51L32.05 12.61L30.15 12.61ZM33.39 9.02L35.96 9.02L34.68 5.50L33.39 9.02ZM40.24 12.61L40.24 5.78L41.90 5.78L41.90 6.57L41.90 6.57Q42.29 6.10 42.83 5.87L42.83 5.87L42.83 5.87Q43.37 5.63 43.91 5.63L43.91 5.63L43.91 5.63Q44.76 5.63 45.32 6.04L45.32 6.04L45.32 6.04Q45.88 6.44 46.13 7.09L46.13 7.09L46.13 7.09Q46.39 7.75 46.39 8.50L46.39 8.50L46.39 12.61L44.74 12.61L44.74 8.72L44.74 8.72Q44.74 8.03 44.40 7.60L44.40 7.60L44.40 7.60Q44.06 7.17 43.44 7.17L43.44 7.17L43.44 7.17Q42.70 7.17 42.30 7.59L42.30 7.59L42.30 7.59Q41.90 8.00 41.90 8.87L41.90 8.87L41.90 12.61L40.24 12.61ZM48.14 4.48L48.14 2.95L49.88 2.95L49.88 4.48L48.14 4.48ZM48.18 12.61L48.18 5.78L49.83 5.78L49.83 12.61L48.18 12.61ZM51.82 12.61L51.82 5.78L53.50 5.78L53.50 6.49L53.50 6.49Q53.82 6.05 54.27 5.84L54.27 5.84L54.27 5.84Q54.72 5.63 55.23 5.63L55.23 5.63L55.23 5.63Q56.49 5.63 57.16 6.84L57.16 6.84L57.16 6.84Q57.54 6.23 58.13 5.93L58.13 5.93L58.13 5.93Q58.73 5.63 59.42 5.63L59.42 5.63L59.42 5.63Q60.25 5.63 60.82 6.04L60.82 6.04L60.82 6.04Q61.39 6.44 61.66 7.09L61.66 7.09L61.66 7.09Q61.94 7.75 61.94 8.50L61.94 8.50L61.94 12.61L60.25 12.61L60.25 8.72L60.25 8.72Q60.25 8.01 60.00 7.60L60.00 7.60L60.00 7.60Q59.75 7.18 59.14 7.18L59.14 7.18L59.14 7.18Q58.71 7.18 58.38 7.41L58.38 7.41L58.38 7.41Q58.06 7.63 57.89 8.01L57.89 8.01L57.89 8.01Q57.72 8.39 57.72 8.85L57.72 8.85L57.72 12.61L56.02 12.61L56.02 8.69L56.02 8.69Q56.02 7.99 55.78 7.59L55.78 7.59L55.78 7.59Q55.54 7.18 54.94 7.18L54.94 7.18L54.94 7.18Q54.50 7.18 54.17 7.41L54.17 7.41L54.17 7.41Q53.85 7.63 53.67 8.01L53.67 8.01L53.67 8.01Q53.50 8.39 53.50 8.85L53.50 8.85L53.50 12.61L51.82 12.61ZM65.60 12.74L65.60 12.74Q64.89 12.74 64.33 12.48L64.33 12.48L64.33 12.48Q63.77 12.22 63.44 11.71L63.44 11.71L63.44 11.71Q63.12 11.20 63.12 10.51L63.12 10.51L63.12 10.51Q63.12 9.46 63.85 9.00L63.85 9.00L63.85 9.00Q64.59 8.53 65.84 8.53L65.84 8.53L67.61 8.53L67.61 8.53Q67.61 7.87 67.27 7.48L67.27 7.48L67.27 7.48Q66.92 7.09 66.27 7.09L66.27 7.09L66.27 7.09Q65.72 7.09 65.31 7.36L65.31 7.36L65.31 7.36Q64.91 7.63 64.66 8.05L64.66 8.05L63.38 7.13L63.38 7.13Q63.91 6.41 64.60 6.02L64.60 6.02L64.60 6.02Q65.30 5.63 66.25 5.63L66.25 5.63L66.25 5.63Q67.17 5.63 67.84 5.99L67.84 5.99L67.84 5.99Q68.50 6.34 68.85 6.99L68.85 6.99L68.85 6.99Q69.21 7.63 69.21 8.46L69.21 8.46L69.21 12.61L67.83 12.61L67.72 11.63L67.72 11.63Q67.31 12.24 66.78 12.49L66.78 12.49L66.78 12.49Q66.25 12.74 65.60 12.74L65.60 12.74ZM65.84 11.33L65.84 11.33Q66.30 11.33 66.71 11.11L66.71 11.11L66.71 11.11Q67.11 10.89 67.35 10.52L67.35 10.52L67.35 10.52Q67.60 10.16 67.61 9.73L67.61 9.73L65.93 9.73L65.93 9.73Q65.39 9.73 65.11 9.97L65.11 9.97L65.11 9.97Q64.83 10.21 64.83 10.56L64.83 10.56L64.83 10.56Q64.83 10.91 65.09 11.12L65.09 11.12L65.09 11.12Q65.36 11.33 65.84 11.33L65.84 11.33ZM72.37 12.74L72.37 12.74Q71.71 12.74 71.33 12.41L71.33 12.41L71.33 12.41Q70.94 12.08 70.94 11.25L70.94 11.25L70.94 2.95L72.61 2.95L72.61 10.79L72.61 10.79Q72.61 11.25 73.16 11.25L73.16 11.25L73.16 11.25Q73.35 11.25 73.62 11.20L73.62 11.20L73.62 12.61L73.62 12.61Q72.92 12.74 72.37 12.74L72.37 12.74ZM80.34 12.61L77.44 2.95L79.25 2.95L81.31 10.06L83.45 3.51L84.79 3.51L86.93 10.06L88.99 2.95L90.79 2.95L87.90 12.61L86.22 12.61L84.12 6.25L82.02 12.61L80.34 12.61ZM94.80 12.74L94.80 12.74Q93.67 12.74 92.89 12.26L92.89 12.26L92.89 12.26Q92.11 11.77 91.73 10.97L91.73 10.97L91.73 10.97Q91.34 10.17 91.34 9.21L91.34 9.21L91.34 9.21Q91.34 8.29 91.71 7.46L91.71 7.46L91.71 7.46Q92.08 6.64 92.84 6.14L92.84 6.14L92.84 6.14Q93.59 5.63 94.69 5.63L94.69 5.63L94.69 5.63Q95.81 5.63 96.52 6.15L96.52 6.15L96.52 6.15Q97.23 6.67 97.55 7.45L97.55 7.45L97.55 7.45Q97.86 8.23 97.86 9.08L97.86 9.08L97.86 9.08Q97.86 9.28 97.84 9.47L97.84 9.47L97.84 9.47Q97.82 9.66 97.79 9.73L97.79 9.73L93.11 9.73L93.11 9.73Q93.34 11.23 94.81 11.23L94.81 11.23L94.81 11.23Q95.30 11.23 95.70 11.06L95.70 11.06L95.70 11.06Q96.11 10.89 96.46 10.51L96.46 10.51L97.60 11.51L97.60 11.51Q97.04 12.13 96.35 12.44L96.35 12.44L96.35 12.44Q95.66 12.74 94.80 12.74L94.80 12.74ZM93.11 8.53L96.22 8.53L96.22 8.53Q96.13 7.81 95.73 7.42L95.73 7.42L95.73 7.42Q95.33 7.03 94.68 7.03L94.68 7.03L94.68 7.03Q93.38 7.03 93.11 8.53L93.11 8.53ZM100.64 12.74L100.64 12.74Q99.98 12.74 99.59 12.41L99.59 12.41L99.59 12.41Q99.21 12.08 99.21 11.25L99.21 11.25L99.21 2.95L100.88 2.95L100.88 10.79L100.88 10.79Q100.88 11.25 101.42 11.25L101.42 11.25L101.42 11.25Q101.62 11.25 101.88 11.20L101.88 11.20L101.88 12.61L101.88 12.61Q101.19 12.74 100.64 12.74L100.64 12.74ZM103.56 12.61L103.56 7.17L102.31 7.17L102.31 5.78L103.58 5.78L103.58 4.86L103.58 4.86Q103.58 4.22 103.88 3.75L103.88 3.75L103.88 3.75Q104.17 3.29 104.67 3.05L104.67 3.05L104.67 3.05Q105.17 2.80 105.76 2.80L105.76 2.80L105.76 2.80Q106.37 2.80 107.00 3.08L107.00 3.08L106.45 4.46L106.45 4.46Q106.17 4.29 105.92 4.29L105.92 4.29L105.92 4.29Q105.64 4.29 105.46 4.47L105.46 4.47L105.46 4.47Q105.29 4.66 105.29 5.03L105.29 5.03L105.29 5.78L106.88 5.78L106.88 7.17L105.29 7.17L105.29 12.61L103.56 12.61ZM109.74 12.74L109.74 12.74Q109.03 12.74 108.47 12.48L108.47 12.48L108.47 12.48Q107.91 12.22 107.58 11.71L107.58 11.71L107.58 11.71Q107.26 11.20 107.26 10.51L107.26 10.51L107.26 10.51Q107.26 9.46 107.99 9.00L107.99 9.00L107.99 9.00Q108.73 8.53 109.98 8.53L109.98 8.53L111.75 8.53L111.75 8.53Q111.75 7.87 111.41 7.48L111.41 7.48L111.41 7.48Q111.06 7.09 110.41 7.09L110.41 7.09L110.41 7.09Q109.86 7.09 109.45 7.36L109.45 7.36L109.45 7.36Q109.05 7.63 108.80 8.05L108.80 8.05L107.52 7.13L107.52 7.13Q108.05 6.41 108.74 6.02L108.74 6.02L108.74 6.02Q109.44 5.63 110.39 5.63L110.39 5.63L110.39 5.63Q111.31 5.63 111.98 5.99L111.98 5.99L111.98 5.99Q112.64 6.34 112.99 6.99L112.99 6.99L112.99 6.99Q113.35 7.63 113.35 8.46L113.35 8.46L113.35 12.61L111.97 12.61L111.86 11.63L111.86 11.63Q111.45 12.24 110.92 12.49L110.92 12.49L110.92 12.49Q110.39 12.74 109.74 12.74L109.74 12.74ZM109.98 11.33L109.98 11.33Q110.44 11.33 110.84 11.11L110.84 11.11L110.84 11.11Q111.25 10.89 111.49 10.52L111.49 10.52L111.49 10.52Q111.74 10.16 111.75 9.73L111.75 9.73L110.07 9.73L110.07 9.73Q109.53 9.73 109.25 9.97L109.25 9.97L109.25 9.97Q108.96 10.21 108.96 10.56L108.96 10.56L108.96 10.56Q108.96 10.91 109.23 11.12L109.23 11.12L109.23 11.12Q109.50 11.33 109.98 11.33L109.98 11.33ZM115.12 12.61L115.12 5.78L116.75 5.78L116.75 6.92L116.75 6.92Q116.96 6.32 117.48 5.98L117.48 5.98L117.48 5.98Q117.99 5.63 118.58 5.63L118.58 5.63L118.58 5.63Q118.93 5.63 119.26 5.76L119.26 5.76L119.26 5.76Q119.59 5.88 119.83 6.13L119.83 6.13L119.08 7.49L119.08 7.49Q118.73 7.26 118.33 7.26L118.33 7.26L118.33 7.26Q117.92 7.26 117.55 7.52L117.55 7.52L117.55 7.52Q117.19 7.79 116.96 8.34L116.96 8.34L116.96 8.34Q116.74 8.89 116.74 9.72L116.74 9.72L116.74 12.61L115.12 12.61ZM123.54 12.74L123.54 12.74Q122.41 12.74 121.63 12.26L121.63 12.26L121.63 12.26Q120.85 11.77 120.47 10.97L120.47 10.97L120.47 10.97Q120.08 10.17 120.08 9.21L120.08 9.21L120.08 9.21Q120.08 8.29 120.45 7.46L120.45 7.46L120.45 7.46Q120.82 6.64 121.57 6.14L121.57 6.14L121.57 6.14Q122.33 5.63 123.43 5.63L123.43 5.63L123.43 5.63Q124.55 5.63 125.26 6.15L125.26 6.15L125.26 6.15Q125.97 6.67 126.28 7.45L126.28 7.45L126.28 7.45Q126.59 8.23 126.59 9.08L126.59 9.08L126.59 9.08Q126.59 9.28 126.58 9.47L126.58 9.47L126.58 9.47Q126.56 9.66 126.53 9.73L126.53 9.73L121.84 9.73L121.84 9.73Q122.08 11.23 123.55 11.23L123.55 11.23L123.55 11.23Q124.04 11.23 124.44 11.06L124.44 11.06L124.44 11.06Q124.84 10.89 125.19 10.51L125.19 10.51L126.34 11.51L126.34 11.51Q125.78 12.13 125.09 12.44L125.09 12.44L125.09 12.44Q124.40 12.74 123.54 12.74L123.54 12.74ZM121.84 8.53L124.95 8.53L124.95 8.53Q124.87 7.81 124.47 7.42L124.47 7.42L124.47 7.42Q124.07 7.03 123.42 7.03L123.42 7.03L123.42 7.03Q122.12 7.03 121.84 8.53L121.84 8.53ZM135.60 12.74L135.60 12.74Q134.07 12.74 133.01 12.07L133.01 12.07L133.01 12.07Q131.96 11.40 131.44 10.27L131.44 10.27L131.44 10.27Q130.92 9.14 130.92 7.77L130.92 7.77L130.92 7.77Q130.92 6.40 131.44 5.27L131.44 5.27L131.44 5.27Q131.95 4.14 133.00 3.47L133.00 3.47L133.00 3.47Q134.05 2.79 135.58 2.79L135.58 2.79L135.58 2.79Q137.02 2.79 138.12 3.50L138.12 3.50L138.12 3.50Q139.21 4.22 139.79 5.56L139.79 5.56L138.26 6.21L138.26 6.21Q137.94 5.25 137.23 4.78L137.23 4.78L137.23 4.78Q136.53 4.31 135.57 4.31L135.57 4.31L135.57 4.31Q134.59 4.31 133.93 4.77L133.93 4.77L133.93 4.77Q133.27 5.23 132.96 6.00L132.96 6.00L132.96 6.00Q132.64 6.77 132.64 7.70L132.64 7.70L132.64 7.70Q132.64 8.70 132.96 9.49L132.96 9.49L132.96 9.49Q133.27 10.27 133.94 10.73L133.94 10.73L133.94 10.73Q134.60 11.19 135.60 11.19L135.60 11.19L135.60 11.19Q136.29 11.19 136.87 10.89L136.87 10.89L136.87 10.89Q137.45 10.60 137.83 10.05L137.83 10.05L137.83 10.05Q138.20 9.51 138.30 8.78L138.30 8.78L136.10 8.78L136.10 7.38L139.98 7.38L139.98 12.61L138.61 12.61L138.46 11.25L138.46 11.25Q138.06 11.94 137.30 12.34L137.30 12.34L137.30 12.34Q136.55 12.74 135.60 12.74L135.60 12.74ZM141.84 12.61L141.84 5.78L143.47 5.78L143.47 6.92L143.47 6.92Q143.68 6.32 144.19 5.98L144.19 5.98L144.19 5.98Q144.70 5.63 145.30 5.63L145.30 5.63L145.30 5.63Q145.65 5.63 145.98 5.76L145.98 5.76L145.98 5.76Q146.31 5.88 146.55 6.13L146.55 6.13L145.79 7.49L145.79 7.49Q145.44 7.26 145.04 7.26L145.04 7.26L145.04 7.26Q144.63 7.26 144.27 7.52L144.27 7.52L144.27 7.52Q143.90 7.79 143.68 8.34L143.68 8.34L143.68 8.34Q143.45 8.89 143.45 9.72L143.45 9.72L143.45 12.61L141.84 12.61ZM150.27 12.74L150.27 12.74Q149.24 12.74 148.44 12.26L148.44 12.26L148.44 12.26Q147.64 11.78 147.21 10.96L147.21 10.96L147.21 10.96Q146.77 10.14 146.77 9.17L146.77 9.17L146.77 9.17Q146.77 8.21 147.21 7.40L147.21 7.40L147.21 7.40Q147.64 6.59 148.44 6.11L148.44 6.11L148.44 6.11Q149.24 5.63 150.27 5.63L150.27 5.63L150.27 5.63Q151.29 5.63 152.09 6.11L152.09 6.11L152.09 6.11Q152.89 6.59 153.33 7.40L153.33 7.40L153.33 7.40Q153.77 8.21 153.77 9.17L153.77 9.17L153.77 9.17Q153.77 10.14 153.33 10.96L153.33 10.96L153.33 10.96Q152.89 11.78 152.09 12.26L152.09 12.26L152.09 12.26Q151.29 12.74 150.27 12.74L150.27 12.74ZM150.27 11.31L150.27 11.31Q150.87 11.31 151.27 11.02L151.27 11.02L151.27 11.02Q151.66 10.73 151.85 10.24L151.85 10.24L151.85 10.24Q152.03 9.76 152.03 9.17L152.03 9.17L152.03 9.17Q152.03 8.26 151.60 7.67L151.60 7.67L151.60 7.67Q151.16 7.08 150.27 7.08L150.27 7.08L150.27 7.08Q149.67 7.08 149.27 7.36L149.27 7.36L149.27 7.36Q148.87 7.64 148.69 8.11L148.69 8.11L148.69 8.11Q148.50 8.59 148.50 9.17L148.50 9.17L148.50 9.17Q148.50 9.76 148.69 10.24L148.69 10.24L148.69 10.24Q148.87 10.73 149.27 11.02L149.27 11.02L149.27 11.02Q149.67 11.31 150.27 11.31L150.27 11.31ZM157.40 12.74L157.40 12.74Q156.15 12.74 155.53 11.85L155.53 11.85L155.53 11.85Q154.92 10.96 154.92 9.37L154.92 9.37L154.92 5.78L156.60 5.78L156.60 9.43L156.60 9.43Q156.60 10.03 156.71 10.42L156.71 10.42L156.71 10.42Q156.81 10.81 157.08 11.02L157.08 11.02L157.08 11.02Q157.35 11.23 157.84 11.23L157.84 11.23L157.84 11.23Q158.54 11.23 158.98 10.72L158.98 10.72L158.98 10.72Q159.42 10.20 159.42 8.85L159.42 8.85L159.42 5.78L161.12 5.78L161.12 12.61L159.42 12.61L159.42 11.81L159.42 11.81Q159.06 12.28 158.54 12.51L158.54 12.51L158.54 12.51Q158.03 12.74 157.40 12.74L157.40 12.74ZM163.11 15.60L163.11 5.78L164.81 5.78L164.81 6.46L164.81 6.46Q165.15 6.04 165.65 5.83L165.65 5.83L165.65 5.83Q166.15 5.63 166.73 5.63L166.73 5.63L166.73 5.63Q167.65 5.63 168.32 6.11L168.32 6.11L168.32 6.11Q168.99 6.60 169.34 7.41L169.34 7.41L169.34 7.41Q169.68 8.22 169.68 9.19L169.68 9.19L169.68 9.19Q169.68 10.15 169.34 10.96L169.34 10.96L169.34 10.96Q168.99 11.78 168.33 12.26L168.33 12.26L168.33 12.26Q167.67 12.74 166.76 12.74L166.76 12.74L166.76 12.74Q166.18 12.74 165.67 12.54L165.67 12.54L165.67 12.54Q165.15 12.34 164.81 11.92L164.81 11.92L164.81 15.60L163.11 15.60ZM166.32 11.20L166.32 11.20Q167.15 11.20 167.57 10.65L167.57 10.65L167.57 10.65Q167.99 10.10 167.99 9.19L167.99 9.19L167.99 9.19Q167.99 8.28 167.56 7.70L167.56 7.70L167.56 7.70Q167.14 7.13 166.32 7.13L166.32 7.13L166.32 7.13Q165.50 7.13 165.08 7.70L165.08 7.70L165.08 7.70Q164.66 8.28 164.66 9.19L164.66 9.19L164.66 9.19Q164.66 10.10 165.08 10.65L165.08 10.65L165.08 10.65Q165.50 11.20 166.32 11.20L166.32 11.20Z"></path></g><!----><g data-v-d3f97b9e="" id="e9eba29b-db83-4275-9175-85dfe09810b4" transform="matrix(1.0572779337565104,0,0,1.0572779337565104,342.13529272828237,0.6974099699558209)" stroke="none" fill="black"><path clip-rule="evenodd" d="M75.754 91.754c-11.632 1.836-9.73-4.492-9.864-11.711l-.686-14.15-2.987 13.671c-.545 2.594-1.23 4.972 2.446 6.876 2.59 2.248-.332 5.448-3.121 5.037-8.518.277-7.284-5.376-6.548-9.385l.479-5.79c.343-3.944 1.093-6.4 1.295-11.913l-1.15-2.988c-9.188-2.381-15.524-4.152-22.664-7.962l-5.114.679c-2.311.342-1.692 3.066-1.966 4.834l-.747 4.827-4.228 10.961-.331.952c-.279.754-.211 3.745.886 5.304l2.237 4.561c1.77 2.59 2.244 8.987-2.515 6.938l-3.541-1.49c-2.513-1.021-4.562-8.028-5.436-13.133l.069-7.151c-2.183-.675-3.07 12.191-2.183 14.836l2.183 6.675c.671 2.168-1.84 2.922-3.61 2.922-4.154 0-5.992-4.218-6.876-7.76l-.675-2.646C.077 80.664.619 74.463 2.732 70.854l.951-2.233c1.903-4.431-.41-7.631-.951-9.878-1.77-7.216-3.2-14.225 1.771-21.167l.346-.475c-.144-.542-1.576-1.695-2.46-4.417-1.907-6.133-3.608-16.197-1.22-16.197l1.562-.077c4.021 0 2.854 16.607 7.627 15.522l34.574.343 6.056-1.64c2.25-.606 4.152-2.035 6.122-3.264l3.94-2.447c4.561 4.562 8.514 7.352 15.045 9.732 1.774 13.537-.199 16.54-1.902 24.628l-.688 3.269c-1.216 5.787-1.627 11.779-1.35 17.7l.134 2.789c-.065 2.857 1.559 3.06 3.807 3.741 1.43.753 2.447 3.611-.342 4.971zM83.062 9.073c1.901 1.297 4.286 3.608 6.191 5.646l2.388 2.592c1.562 1.625 3.94 1.425 6.055 1.834l.743.135c2.312 1.218 1.576 3.673.819 5.512l-.477 1.153c-2.183 5.247-8.645 5.657-13.208 3.198l-2.035-1.083h-.688l-1.422.952-2.927 2.314c-5.92-2.591-10.751-5.714-14.637-9.866l8.922-11.167 2.991-4.352.61-1.43.686-1.572c.544-1.759 2.788-3.464 4.43-2.789 1.559.686 2.58 3.674 2.169 5.249l-.408 1.77-.202 1.904z"></path></g><!----><g data-v-d3f97b9e="" id="934bb450-98aa-4695-9e57-392b3ddbbfa7" fill="black" transform="matrix(1.8859869824785982,0,0,1.8859869824785982,98.03774753940485,203.56139204412528)"><path d="M1.25 13.78L2.03 13.78L2.03 8.36C2.03 7.46 1.95 6.55 1.93 5.64L1.95 5.64L2.93 7.49L6.30 13.78L7.15 13.78L7.15 4.54L6.37 4.54L6.37 9.90C6.37 10.82 6.45 11.77 6.47 12.66L6.45 12.66L2.10 4.54L1.25 4.54ZM19.60 13.96C21.38 13.96 22.89 12.59 22.89 10.22C22.89 7.83 21.38 6.47 19.60 6.47C17.82 6.47 16.31 7.83 16.31 10.22C16.31 12.59 17.82 13.96 19.60 13.96ZM19.60 13.27C18.17 13.27 17.15 12.04 17.15 10.22C17.15 8.40 18.17 7.15 19.60 7.15C21.03 7.15 22.05 8.40 22.05 10.22C22.05 12.04 21.03 13.27 19.60 13.27ZM49.76 13.96C50.75 13.96 51.76 13.37 52.53 12.73L52.57 12.73L52.64 13.78L53.31 13.78L53.31 9.27C53.31 7.67 52.51 6.47 50.69 6.47C49.50 6.47 48.52 7.08 48.03 7.50L48.37 8.11C48.86 7.67 49.62 7.17 50.57 7.17C52.02 7.17 52.49 8.19 52.50 9.28C48.90 9.62 47.45 10.37 47.45 12.00C47.45 13.30 48.54 13.96 49.76 13.96ZM49.94 13.29C49.08 13.29 48.24 12.89 48.24 11.94C48.24 10.85 49.27 10.18 52.50 9.87L52.50 12.05C51.62 12.87 50.76 13.29 49.94 13.29ZM63.01 13.78L63.83 13.78L63.83 8.71C64.74 7.67 65.35 7.18 66.25 7.18C67.51 7.18 68.03 7.92 68.03 9.44L68.03 13.78L68.84 13.78L68.84 9.32C68.84 7.42 68.08 6.47 66.44 6.47C65.38 6.47 64.58 7.10 63.83 7.98L63.77 7.98L63.69 6.64L63.01 6.64ZM81.59 4.76C82.04 4.76 82.42 4.41 82.42 3.95C82.42 3.44 82.04 3.11 81.59 3.11C81.14 3.11 80.77 3.44 80.77 3.95C80.77 4.41 81.14 4.76 81.59 4.76ZM78.61 13.78L84.91 13.78L84.91 13.09L82.15 13.09L82.15 6.64L78.61 6.64L78.61 7.32L81.35 7.32L81.35 13.09L78.61 13.09ZM93.37 13.78L94.16 13.78L94.16 8.46C94.57 7.60 94.93 7.18 95.48 7.18C96.08 7.18 96.39 7.69 96.39 8.71L96.39 13.78L97.08 13.78L97.08 8.46C97.48 7.60 97.85 7.18 98.42 7.18C99.01 7.18 99.30 7.69 99.30 8.71L99.30 13.78L100.10 13.78L100.10 8.62C100.10 7.20 99.55 6.47 98.63 6.47C97.89 6.47 97.45 6.93 96.99 7.73C96.82 6.87 96.39 6.47 95.68 6.47C94.92 6.47 94.50 6.92 94.14 7.60L94.09 7.60L94.02 6.64L93.37 6.64ZM111.36 13.96C112.35 13.96 113.36 13.37 114.13 12.73L114.17 12.73L114.24 13.78L114.91 13.78L114.91 9.27C114.91 7.67 114.11 6.47 112.29 6.47C111.10 6.47 110.12 7.08 109.63 7.50L109.97 8.11C110.46 7.67 111.22 7.17 112.17 7.17C113.62 7.17 114.09 8.19 114.10 9.28C110.50 9.62 109.05 10.37 109.05 12.00C109.05 13.30 110.14 13.96 111.36 13.96ZM111.54 13.29C110.68 13.29 109.84 12.89 109.84 11.94C109.84 10.85 110.87 10.18 114.10 9.87L114.10 12.05C113.22 12.87 112.36 13.29 111.54 13.29ZM128.94 13.96C129.64 13.96 130.10 13.75 130.68 13.51L130.45 12.88C129.92 13.15 129.51 13.27 129.09 13.27C128.18 13.27 127.68 12.75 127.68 11.63L127.68 3.57L124.43 3.57L124.43 4.26L126.87 4.26L126.87 11.56C126.87 13.19 127.61 13.96 128.94 13.96ZM159.74 13.96C160.44 13.96 160.90 13.75 161.48 13.51L161.25 12.88C160.72 13.15 160.31 13.27 159.89 13.27C158.98 13.27 158.48 12.75 158.48 11.63L158.48 3.57L155.23 3.57L155.23 4.26L157.67 4.26L157.67 11.56C157.67 13.19 158.41 13.96 159.74 13.96ZM174.02 13.96C175.18 13.96 175.97 13.54 176.60 13.12L176.29 12.53C175.64 12.98 174.97 13.26 174.10 13.26C172.45 13.26 171.30 12.07 171.29 10.36L176.85 10.36C176.88 10.18 176.88 9.98 176.88 9.79C176.88 7.74 175.71 6.47 173.84 6.47C172.10 6.47 170.44 7.91 170.44 10.22C170.44 12.56 172.06 13.96 174.02 13.96ZM171.28 9.73C171.46 8.12 172.61 7.13 173.84 7.13C175.22 7.13 176.11 8.04 176.11 9.73ZM188.34 13.78L189.13 13.78L189.13 7.32L192.16 7.32L192.16 6.64L189.13 6.64L189.13 6.23C189.13 4.94 189.66 4.09 191.00 4.09C191.62 4.09 192.02 4.14 192.64 4.47L192.85 3.84C192.19 3.51 191.58 3.40 190.95 3.40C189.18 3.40 188.34 4.48 188.34 6.27L188.34 6.64L186.35 6.72L186.35 7.32L188.34 7.32ZM205.73 13.96C206.42 13.96 207.21 13.76 207.83 13.51L207.62 12.91C207.12 13.13 206.57 13.26 205.88 13.26C204.46 13.26 204.06 12.47 204.06 11.12L204.06 7.32L207.56 7.32L207.56 6.64L204.06 6.64L204.06 3.89L203.28 4.54L203.28 6.64L201.28 6.64L201.28 7.32L203.25 7.32L203.25 11.09C203.25 12.80 203.84 13.96 205.73 13.96ZM235.38 13.96C237.03 13.96 238.49 12.53 238.49 10.09C238.49 7.88 237.52 6.47 235.65 6.47C234.81 6.47 233.88 6.94 233.20 7.67L233.23 6.17L233.23 3.57L232.41 3.57L232.41 13.78L233.09 13.78L233.16 12.98L233.18 12.98C233.86 13.57 234.72 13.96 235.38 13.96ZM235.31 13.26C234.77 13.26 233.95 12.96 233.23 12.25L233.23 8.41C234.02 7.57 234.84 7.17 235.49 7.17C237.03 7.17 237.65 8.40 237.65 10.11C237.65 11.98 236.66 13.26 235.31 13.26ZM251.02 13.96C252.18 13.96 252.97 13.54 253.60 13.12L253.29 12.53C252.64 12.98 251.97 13.26 251.10 13.26C249.45 13.26 248.30 12.07 248.29 10.36L253.85 10.36C253.88 10.18 253.88 9.98 253.88 9.79C253.88 7.74 252.71 6.47 250.84 6.47C249.10 6.47 247.44 7.91 247.44 10.22C247.44 12.56 249.06 13.96 251.02 13.96ZM248.28 9.73C248.46 8.12 249.61 7.13 250.84 7.13C252.22 7.13 253.11 8.04 253.11 9.73ZM263.21 13.78L264.03 13.78L264.03 8.71C264.94 7.67 265.55 7.18 266.45 7.18C267.71 7.18 268.23 7.92 268.23 9.44L268.23 13.78L269.04 13.78L269.04 9.32C269.04 7.42 268.28 6.47 266.64 6.47C265.58 6.47 264.78 7.10 263.98 8.01L264.03 6.17L264.03 3.57L263.21 3.57ZM281.79 4.76C282.24 4.76 282.62 4.41 282.62 3.95C282.62 3.44 282.24 3.11 281.79 3.11C281.34 3.11 280.97 3.44 280.97 3.95C280.97 4.41 281.34 4.76 281.79 4.76ZM278.81 13.78L285.11 13.78L285.11 13.09L282.35 13.09L282.35 6.64L278.81 6.64L278.81 7.32L281.55 7.32L281.55 13.09L278.81 13.09ZM294.01 13.78L294.83 13.78L294.83 8.71C295.74 7.67 296.35 7.18 297.25 7.18C298.51 7.18 299.03 7.92 299.03 9.44L299.03 13.78L299.84 13.78L299.84 9.32C299.84 7.42 299.08 6.47 297.44 6.47C296.38 6.47 295.58 7.10 294.83 7.98L294.77 7.98L294.69 6.64L294.01 6.64ZM311.88 13.96C312.76 13.96 313.61 13.38 314.19 12.74L314.23 12.74L314.31 13.78L314.99 13.78L314.99 3.57L314.19 3.57L314.19 6.03L314.22 7.46C313.53 6.83 312.89 6.47 312.05 6.47C310.41 6.47 308.91 7.92 308.91 10.22C308.91 12.61 310.09 13.96 311.88 13.96ZM312.00 13.26C310.59 13.26 309.75 12.05 309.75 10.22C309.75 8.48 310.81 7.17 312.16 7.17C312.82 7.17 313.47 7.45 314.19 8.16L314.19 12.00C313.49 12.82 312.75 13.26 312.00 13.26Z"></path></g></svg>